<?xml version="1.0" encoding="iso-8859-1"?>
<!-- Uploaded to: SVG Repo, www.svgrepo.com, Generator: SVG Repo Mixer Tools -->
<!DOCTYPE svg PUBLIC "-//W3C//DTD SVG 1.1//EN" "http://www.w3.org/Graphics/SVG/1.1/DTD/svg11.dtd">
<svg fill="#000000" height="800px" width="800px" version="1.1" id="Capa_1" xmlns="http://www.w3.org/2000/svg" xmlns:xlink="http://www.w3.org/1999/xlink" 
	 viewBox="0 0 297 297" xml:space="preserve">
<g>
	<path d="M148.501,0C66.655,0,0.07,66.617,0.07,148.5S66.655,297,148.501,297c81.844,0,148.429-66.617,148.429-148.5
		S230.345,0,148.501,0z M148.501,277.143c-70.896,0-128.574-57.709-128.574-128.643S77.606,19.857,148.501,19.857
		c70.894,0,128.571,57.709,128.571,128.643S219.395,277.143,148.501,277.143z"/>
	<path d="M148.501,43.304c-57.979,0-105.146,47.191-105.146,105.196s47.168,105.195,105.146,105.195s105.146-47.19,105.146-105.195
		S206.479,43.304,148.501,43.304z M148.501,233.84c-47.029,0-85.291-38.283-85.291-85.34c0-47.058,38.262-85.341,85.291-85.341
		c47.03,0,85.292,38.283,85.292,85.341C233.793,195.557,195.531,233.84,148.501,233.84z"/>
	<path d="M181.265,105.807h-65.527c-5.482,0-9.929,4.447-9.929,9.929v65.529c0,5.481,4.446,9.929,9.929,9.929h65.527
		c5.481,0,9.929-4.447,9.929-9.929v-65.529C191.193,110.254,186.746,105.807,181.265,105.807z M171.335,171.335h-45.669v-45.67
		h45.669V171.335z"/>
</g>
</svg>