<?xml version="1.0" encoding="iso-8859-1"?>
<!-- Generator: Adobe Illustrator 19.0.0, SVG Export Plug-In . SVG Version: 6.00 Build 0)  -->
<svg version="1.1" id="Layer_1" xmlns="http://www.w3.org/2000/svg" xmlns:xlink="http://www.w3.org/1999/xlink" x="0px" y="0px"
	 viewBox="0 0 512.001 512.001" style="enable-background:new 0 0 512.001 512.001;" xml:space="preserve">
<g>
	<g>
		<path d="M305.866,213.8c0.372,1.305-7.013,4.883-8.024,5.301c-2.894,1.195-5.997,1.841-9.128,1.874
			c-6.673,0.071-13.371-2.555-18.133-7.247c-9.751-9.608-9.89-25.787-0.336-35.55c-4.527-1.291-9.302-1.997-14.243-1.997
			c-28.643,0-51.863,23.22-51.863,51.863c-0.001,28.642,23.22,51.862,51.862,51.862c28.643,0,51.862-23.22,51.862-51.863
			C307.862,223.101,307.156,218.327,305.866,213.8z"/>
	</g>
</g>
<g>
	<g>
		<path d="M372.956,218.651h-16.225c-5.119-51.064-48.338-91.068-100.729-91.068s-95.61,40.003-100.729,91.068h-16.226
			c-12.236,0-22.192,9.955-22.192,22.192v197.442c0,23.904,19.448,43.351,43.352,43.351h191.589
			c23.904,0,43.351-19.447,43.351-43.351V240.843C395.147,228.606,385.192,218.651,372.956,218.651z M173.767,228.197
			c0-0.004,0-0.008,0-0.011c0.346-45.059,37.094-81.612,82.233-81.612s81.888,36.552,82.233,81.612c0,0.004,0,0.008,0,0.011
			c0.001,0.205,0.006,0.409,0.016,0.627c0,45.353-36.897,82.25-82.25,82.25c-7.086,0-13.966-0.9-20.532-2.594
			c-35.451-9.143-61.718-41.391-61.715-79.669C173.761,228.606,173.766,228.402,173.767,228.197z M351.796,462.645H160.207
			c-13.433,0-24.362-10.927-24.362-24.36V240.843c0-1.765,1.436-3.201,3.201-3.201h16.095c0.023,0.262,0.062,0.52,0.086,0.782
			c2.257,23.884,13.406,46.819,30.71,63.422c17.388,16.684,40.915,26.896,64.995,28.089c26.015,1.289,52.29-7.899,71.857-25.095
			c19.129-16.811,31.586-41.053,33.984-66.418c0.025-0.262,0.065-0.519,0.086-0.782h16.094c1.765,0,3.201,1.436,3.201,3.201v197.443
			h0.004C376.156,451.718,365.229,462.645,351.796,462.645z"/>
	</g>
</g>
<g>
	<g>
		<path d="M375.642,0H136.359C96.951,0,64.888,32.062,64.888,71.472v14.172c0,5.244,4.251,9.495,9.495,9.495h18.63
			c-11.957,11.859-19.376,28.286-19.376,46.418v283.876c0,47.734,38.834,86.568,86.568,86.568h191.589
			c47.734,0,86.568-38.834,86.568-86.568V141.557c0-18.131-7.419-34.558-19.376-46.418h18.631c5.244,0,9.495-4.251,9.495-9.495
			V71.472C447.114,32.062,415.052,0,375.642,0z M419.373,141.557v283.876c0,37.263-30.315,67.577-67.577,67.577H160.207
			c-37.263,0-67.577-30.315-67.577-67.577V141.557c0-25.587,20.809-46.404,46.394-46.418h233.958
			C398.563,95.152,419.373,115.97,419.373,141.557z M372.98,76.148c-0.008,0-0.016,0-0.024,0h-233.91c-0.008,0-0.016,0-0.024,0
			H83.878v-4.677c0-28.938,23.544-52.481,52.481-52.481h239.283c28.937,0,52.481,23.542,52.481,52.481v4.677H372.98z"/>
	</g>
</g>
<g>
</g>
<g>
</g>
<g>
</g>
<g>
</g>
<g>
</g>
<g>
</g>
<g>
</g>
<g>
</g>
<g>
</g>
<g>
</g>
<g>
</g>
<g>
</g>
<g>
</g>
<g>
</g>
<g>
</g>
</svg>
