<?xml version="1.0" encoding="iso-8859-1"?>
<!-- Uploaded to: SVG Repo, www.svgrepo.com, Generator: SVG Repo Mixer Tools -->
<!DOCTYPE svg PUBLIC "-//W3C//DTD SVG 1.1//EN" "http://www.w3.org/Graphics/SVG/1.1/DTD/svg11.dtd">
<svg version="1.1" id="Capa_1" xmlns="http://www.w3.org/2000/svg" xmlns:xlink="http://www.w3.org/1999/xlink" 
	 width="800px" height="800px" viewBox="0 0 239.52 239.52"
	 xml:space="preserve">
<g>
	<g>
		<path style="fill:#1D1D1B;" d="M173.183,103.101c0.84-4.861,1.364-9.821,1.364-14.917c0-48.203-39.071-87.277-87.273-87.277
			C39.073,0.907,0,39.981,0,88.184c0,48.201,39.073,87.276,87.273,87.276c5.709,0,11.278-0.587,16.685-1.636
			c0-0.106-0.016-0.2-0.016-0.312c0-7.575,1.231-14.86,3.457-21.705c-6.354,2.016-13.11,3.118-20.126,3.118
			c-36.806,0-66.746-29.943-66.746-66.747c0-36.806,29.94-66.741,66.746-66.741c36.807,0,66.744,29.935,66.744,66.741
			c0,6.545-0.986,12.864-2.75,18.845C158.16,104.615,165.515,103.234,173.183,103.101z"/>
		<path style="fill:#1D1D1B;" d="M87.273,26.818c-33.838,0-61.371,27.526-61.371,61.366c0,33.838,27.533,61.372,61.371,61.372
			c8.016,0,15.654-1.592,22.68-4.394c6.89-15.612,19.292-28.219,34.715-35.445c2.524-6.713,3.974-13.95,3.974-21.538
			C148.643,54.344,121.111,26.818,87.273,26.818z M110.636,101.714c0,5.428-4.404,9.83-9.832,9.83H73.743
			c-5.428,0-9.832-4.402-9.832-9.83v-27.06c0-5.431,4.404-9.832,9.832-9.832h27.061c5.428,0,9.832,4.401,9.832,9.832V101.714z"/>
		<path style="fill:#1D1D1B;" d="M174.417,108.41c-0.793,0-1.564,0.092-2.353,0.118c-8.168,0.296-15.969,2.031-23.107,5.076
			c-1.291,0.549-2.53,1.192-3.779,1.821c-1.418,0.714-2.804,1.488-4.157,2.305c-9.549,5.743-17.516,13.834-23.07,23.516
			c-0.795,1.379-1.517,2.802-2.21,4.251c-0.596,1.238-1.175,2.493-1.697,3.779c-2.903,7.208-4.555,15.035-4.678,23.244
			c-0.005,0.337-0.047,0.662-0.047,0.992c0,35.896,29.203,65.1,65.099,65.1c35.899,0,65.103-29.208,65.103-65.1
			C239.52,137.623,210.322,108.41,174.417,108.41z M174.417,225.96c-28.914,0-52.438-23.522-52.438-52.441
			c0-1.826,0.097-3.621,0.277-5.407c2.495-24.242,21.577-43.596,45.661-46.59c2.137-0.263,4.3-0.447,6.5-0.447
			c28.914,0,52.447,23.52,52.447,52.444C226.864,202.438,203.341,225.96,174.417,225.96z"/>
		<path style="fill:#1D1D1B;" d="M174.417,126.453c-3.161,0-6.248,0.32-9.24,0.923c-18.882,3.78-33.68,18.893-37.055,37.917
			c-0.473,2.678-0.771,5.423-0.771,8.226c0,25.953,21.118,47.066,47.066,47.066c25.953,0,47.071-21.113,47.071-47.066
			C221.488,147.566,200.37,126.453,174.417,126.453z M192.569,184.027c0,4.221-3.423,7.638-7.643,7.638h-21.02
			c-4.215,0-7.633-3.417-7.633-7.638v-21.019c0-4.221,3.418-7.638,7.633-7.638h21.02c4.22,0,7.643,3.417,7.643,7.638V184.027z"/>
	</g>
</g>
</svg>