<?xml version="1.0" encoding="utf-8"?>
<!-- Svg Vector Icons : http://www.onlinewebfonts.com/icon -->
<!DOCTYPE svg PUBLIC "-//W3C//DTD SVG 1.1//EN" "http://www.w3.org/Graphics/SVG/1.1/DTD/svg11.dtd">
<svg version="1.1" xmlns="http://www.w3.org/2000/svg" xmlns:xlink="http://www.w3.org/1999/xlink" x="0px" y="0px" viewBox="0 0 1000 1000" enable-background="new 0 0 1000 1000" xml:space="preserve" fill="#FF1744">
<metadata> Svg Vector Icons : http://www.onlinewebfonts.com/icon </metadata>
<g><g transform="translate(0.000000,512.000000) scale(0.100000,-0.100000)"><path d="M4476.7,5002.5c-197.3-19.2-392.7-63.2-490.4-113c-90-47.9-120.7-109.2-139.8-281.6c-11.5-109.2,13.4-620.7,38.3-735.6l9.6-51.7l-172.4-5.8c-149.4-7.7-180.1-13.4-216.5-51.7c-44.1-42.2-44.1-51.7-44.1-450.2c0-283.5,7.7-427.2,24.9-477c38.3-105.4,128.4-153.3,312.3-164.7c130.3-7.7,149.4-13.4,159-49.8c15.3-59.4,13.4-218.4-1.9-228c-9.6-5.8-118.8,7.7-245.2,30.6c-182,30.6-316.1,38.3-632.2,38.3c-373.6,0-415.7-3.8-588.1-49.8c-672.4-180.1-1252.9-645.6-1553.6-1249.1c-157.1-312.3-272-770.1-295-1159c-44.1-791.2,348.7-1540.2,1306.5-2500c791.2-789.3,2252.9-1954,2804.6-2231.8c105.4-51.7,134.1-59.4,210.7-47.9c275.9,42.1,954,411.9,1630.3,892.7c1306.5,929.1,2067.1,1722.2,2456,2561.3c101.5,220.3,231.8,618.8,275.8,846.8c51.7,273.9,47.9,787.4-7.6,1047.9C9166.4,1276.4,8787.1,1786,8153,2134.7c-488.5,270.1-982.8,400.4-1415.7,371.6c-195.4-11.5-440.6-61.3-569-114.9l-72.8-30.7v114.9c0,113,0,114.9,55.6,114.9c92,0,176.2,40.2,197.3,93.9c13.4,28.7,24.9,235.6,30.7,503.8c9.6,530.6,34.5,480.8-256.7,517.2l-185.8,23l11.5,243.3c11.5,287.4-13.4,618.8-55.5,726.1c-67,166.7-264.4,270.1-592,306.5C5105,5025.5,4704.7,5025.5,4476.7,5002.5z M5105,4734.3c260.5-21.1,505.8-80.5,555.6-130.3c30.7-30.7,34.5-74.7,38.3-396.6c1.9-199.2-1.9-381.2-11.5-402.3c-11.5-32.6-36.4-44.1-116.8-53.6c-195.4-23-1316.1,38.3-1417.6,76.6c-15.3,5.7-36.4,42.1-44.1,80.5c-21.1,107.3-13.4,595.8,11.5,687.8c19.2,67.1,32.6,82.4,92,103.5C4363.7,4749.6,4762.1,4765,5105,4734.3z M4112.7,3577.2c446.4-19.2,1597.7-86.2,1789.3-105.4c99.6-9.6,187.7-24.9,195.4-32.6c28.7-28.7,61.3-321.8,47.9-413.8c-23-147.5-21.1-147.5-448.3-147.5c-662.8,0-1892.7,61.3-1959.8,97.7c-49.8,24.9-65.1,168.6-38.3,377.4c26.8,212.7,44.1,256.7,103.4,245.2C3825.4,3592.5,3965.2,3584.9,4112.7,3577.2z M5662.5,2535.1l132.2-11.5l-3.8-251c-1.9-141.8,3.8-258.6,13.4-264.4c9.6-5.8,134.1,15.3,273.9,46c557.5,122.6,1013.4,153.3,1287.4,88.1c390.8-92,883.2-442.5,1183.9-841c145.6-191.6,291.2-486.6,342.9-693.5c103.4-402.3,59.4-1070.9-99.6-1561.3c-252.9-779.7-747.1-1346.8-1917.6-2199.3c-689.7-501.9-1821.8-1210.7-1934.9-1210.7c-93.9,0-1147.5,768.2-1766.3,1289.3c-1226.1,1030.7-1789.3,1772.1-2003.8,2638c-38.3,157.1-44.1,228-44.1,517.2c0,367.8,21.1,484.7,141.8,772c243.3,584.3,892.7,1074.7,1628.4,1229.9c268.2,55.6,433,38.3,961.7-107.3c164.7-44.1,314.2-74.7,354.4-70.9l72.8,5.7l23,134.1c11.5,74.7,26.8,224.1,34.5,333.3l15.3,197.3l586.2-13.4C5266,2554.2,5589.7,2542.7,5662.5,2535.1z"/><path d="M4390.5,4429.7c-120.7-120.7,46-266.3,208.8-182c139.9,70.9,84.3,220.3-84.3,220.3C4453.7,4468,4417.3,4456.5,4390.5,4429.7z"/><path d="M5246.8,4414.4c-38.3-42.2-42.1-120.7-9.6-153.3c65.1-65.1,222.2,11.5,197.3,97.7C5407.8,4446.9,5304.3,4477.6,5246.8,4414.4z"/><path d="M4708.5,4092.5c-69-67.1-13.4-160.9,93.9-160.9c116.9,0,195.4,57.5,170.5,122.6C4948,4119.4,4762.1,4148.1,4708.5,4092.5z"/><path d="M2137.6,1253.4C1902,1100.2,1651,770.7,1541.8,469.9c-78.5-214.6-76.6-540.2,1.9-647.5c32.6-46,105.4-26.8,187.7,46c47.9,44.1,59.4,65.1,53.6,118.8c-17.2,205-3.8,356.3,47.9,496.2c93.9,260.5,201.2,396.6,448.3,570.9c69,47.9,130.3,90,134.1,92c15.3,13.4-19.2,97.7-55.6,137.9C2304.3,1343.5,2267.9,1337.7,2137.6,1253.4z"/><path d="M8396.2,625.1c-59.4-74.7-49.8-93.9,57.5-139.8c76.6-32.6,103.4-38.3,124.5-19.2c38.3,32.6,32.6,72.8-23,145.6C8497.8,688.3,8449.9,692.1,8396.2,625.1z"/><path d="M8248.8,146.2c-15.3-38.3-26.8-84.3-23-103.5c3.8-17.2,99.6-109.2,216.5-199.2L8653-323.2l23,53.6c42.1,97.7,30.7,128.4-103.4,256.7c-134.1,128.3-256.7,228-281.6,228C8283.2,215.1,8264.1,184.5,8248.8,146.2z"/><path d="M8015-422.8c-23-24.9-42.1-53.6-42.1-65.1c0-23,387-398.5,440.6-427.2c42.1-23,90,15.3,107.3,88.1c9.6,34.5-5.7,67.1-69,141.8c-105.4,126.4-318,306.5-362.1,306.5C8070.6-378.8,8038-397.9,8015-422.8z"/><path d="M7695.1-876.8l-55.6-57.5l38.3-42.1c21.1-24.9,118.8-136,218.4-251l180.1-205l44.1,42.1c24.9,23,44.1,59.4,44.1,80.5c0,42.1-348.7,477-388.9,486.6C7762.2-821.3,7725.8-844.3,7695.1-876.8z"/><path d="M7246.8-1313.6l-80.4-70.9l109.2-134.1c206.9-252.9,411.9-467.4,436.8-457.9c13.4,5.8,38.3,40.2,55.6,76.6c32.6,67.1,32.6,67.1-26.8,153.3c-76.6,113-346.8,452.1-383.1,480.8C7335-1246.6,7313.9-1256.2,7246.8-1313.6z"/><path d="M6664.5-1710.2c-38.3-26.8-70.9-63.2-70.9-82.4c0-84.3,452.1-597.7,524.9-597.7c46,0,107.3,53.6,107.3,93.9c0,59.4-243.3,444.4-362.1,572.8C6794.7-1648.9,6758.3-1647,6664.5-1710.2z"/><path d="M6198.9-2005.2c-82.4-49.8-92-72.8-57.5-128.4c47.9-70.9,369.7-467.4,454-557.5c74.7-80.5,78.6-82.4,130.3-55.5c84.3,44.1,103.4,78.5,76.6,130.3c-84.3,164.7-467.4,647.5-511.5,647.5C6271.7-1968.8,6231.5-1986.1,6198.9-2005.2z"/><path d="M5654.9-2250.4c-47.9-17.2-95.8-67.1-95.8-97.7c0-15.3,40.2-76.6,88.1-136c132.2-162.9,484.7-536.4,526.8-557.5c26.8-15.3,47.9-9.6,95.8,34.5l59.4,53.6l-99.6,132.2c-216.5,289.3-490.4,588.1-532.6,582.4C5689.3-2238.9,5670.2-2244.7,5654.9-2250.4z"/><path d="M5141.5-2675.7c-105.4-49.8-114.9-82.4-51.7-164.7c88.1-116.9,488.5-524.9,555.6-565.1c59.4-36.4,69-38.3,120.7-11.5c30.7,15.3,61.3,42.1,67.1,55.5c13.4,36.4-183.9,281.6-423.4,530.7l-185.8,191.6L5141.5-2675.7z"/><path d="M4432.6-2932.4l-61.3-63.2l212.6-237.6c287.4-321.8,517.2-555.6,551.7-555.6c36.4,0,143.7,74.7,172.4,116.9c17.2,28.7,1.9,57.5-99.6,172.4c-157.1,182-643.7,630.3-683.9,630.3C4507.4-2869.2,4467.1-2897.9,4432.6-2932.4z"/></g></g>
</svg>