<?xml version="1.0" encoding="utf-8"?>
<!-- Svg Vector Icons : http://www.onlinewebfonts.com/icon -->
<!DOCTYPE svg PUBLIC "-//W3C//DTD SVG 1.1//EN" "http://www.w3.org/Graphics/SVG/1.1/DTD/svg11.dtd">
<svg version="1.1" xmlns="http://www.w3.org/2000/svg" xmlns:xlink="http://www.w3.org/1999/xlink" x="0px" y="0px" viewBox="0 0 1000 1000" enable-background="new 0 0 1000 1000" xml:space="preserve" fill="#2979FF">
<metadata> Svg Vector Icons : http://www.onlinewebfonts.com/icon </metadata>
<g><g transform="translate(0.000000,511.000000) scale(0.100000,-0.100000)"><path d="M3384.4,4954.3c-31.2-29-55.7-62.4-55.7-75.7c0-11.1,44.5-325.2,100.2-697.1c55.7-371.9,100.2-690.5,100.2-712.7c0-28.9-31.2-37.9-202.7-44.5c-189.3-6.7-204.9-11.1-256.1-69c-111.4-129.2-44.5-260.6,144.8-278.4l118-11.1l-13.4-225c-49-692.7-200.5-1274-472.2-1793C2689.4,749.2,2486.8,453,2126-1.4c-750.6-944.4-966.6-1423.2-1015.6-2247.3c-53.5-857.5,409.8-1697.2,1367.5-2481.2l75.7-60.1h1933.3h1935.5l164.8,133.6c501.1,403.1,975.5,1024.6,1153.7,1512.3c111.4,311.8,138.1,498.9,124.7,882c-31.2,795.1-242.8,1289.6-939.9,2171.6c-343,436.5-550.1,715-536.8,728.3c4.4,4.4,86.8-11.1,182.6-35.6c423.2-106.9,997.8-180.4,1429.9-180.4c213.8,0,233.9,4.5,282.9,55.7c51.2,49,55.7,71.3,55.7,260.6c0,614.7,198.2,1401,490,1948.9c80.2,147,82.4,182.6,20.1,260.6c-55.7,71.3-140.3,75.7-323,13.4c-345.2-120.3-804.1-211.6-1218.3-245c-599.2-49-1156,57.9-1521.2,287.3l-109.1,69.1h84.6c140.3,0,229.4,127,180.4,256.1c-26.7,66.8-133.6,100.2-320.7,100.2c-98,0-178.2,4.5-178.2,8.9c0,6.7,44.6,314.1,100.2,686c55.7,371.9,100.2,701.6,100.2,732.8c0,31.2-22.3,78-51.2,104.7c-51.2,49-53.5,49-1104.7,49H3437.8L3384.4,4954.3z M5264.2,4615.8c0-35.6-37.9-311.8-82.4-619.2l-82.4-556.8l-605.8-6.7l-605.8-4.5l-13.4,71.3c-20,124.7-167,1133.7-167,1156c0,11.1,307.4,20,779.5,20h779.5L5264.2,4615.8z M4224,2878.5c106.9-561.3,389.8-1075.8,808.5-1472.2c175.9-167,481.1-383.1,706-496.7c69-35.6,131.4-82.4,140.3-106.9c6.7-24.5,98-171.5,200.5-329.6c104.7-155.9,189.3-291.8,189.3-300.7c0-8.9-801.8-17.8-1781.8-17.8c-980,0-1781.8,4.5-1781.8,11.1c0,4.5,75.7,122.5,169.3,260.6c211.6,309.6,445.5,786.2,552.4,1113.6c135.9,416.5,236.1,1000,236.1,1376.4v155.9h262.8h262.8L4224,2878.5z M5273.1,2954.2c385.3-334.1,799.6-505.6,1376.5-574.6c412.1-46.8,1037.9,6.7,1563.5,133.6c158.2,37.9,173.7,37.9,158.2,4.5c-193.8-458.8-334.1-1044.6-363.1-1516.8l-13.3-233.9l-211.6,6.7c-645.9,20-1325.2,171.5-1815.2,405.4c-521.2,249.5-962.2,663.7-1187.1,1122.5c-106.9,216-176,416.5-216.1,621.4l-29,149.2h300.7h300.7L5273.1,2954.2z M6687.4-339.9c71.3-89.1,171.5-220.5,225-289.6l93.5-129.2h-788.4c-763.9,0-790.7-2.2-848.6-46.8c-73.5-57.9-80.2-176-13.4-242.8c42.3-42.3,73.5-44.6,946.6-44.6h902.1l31.2-49c44.5-66.8,167.1-376.4,182.6-463.3l13.4-66.8h-890.9c-512.3,0-915.4-8.9-948.8-22.3c-138.1-51.2-160.4-236.1-35.7-300.7c53.5-29,218.3-33.4,1011.2-33.4h944.3l15.6-182.6c8.9-102.4,11.1-229.4,6.7-285.1l-6.7-100.2l-917.6-11.1c-1009-11.1-971.1-6.7-1000-149.2c-11.1-57.9-2.2-82.4,42.3-127l57.9-57.9h870.8c476.7,0,868.6-2.2,868.6-6.7c0-37.9-135.8-329.6-218.3-470c-151.5-251.7-340.8-481.1-648.2-777.3L6311-4455.9H4484.6H2660.5L2342-4139.6c-467.7,470-730.5,875.3-839.7,1298.5c-89.1,345.2-51.2,906.5,89.1,1329.7c118,349.7,262.8,596.9,617,1060.2l209.4,271.7h2069.1H6556L6687.4-339.9z"/></g></g>
</svg>