<?xml version="1.0" encoding="iso-8859-1"?>
<!-- Generator: Adobe Illustrator 19.0.0, SVG Export Plug-In . SVG Version: 6.00 Build 0)  -->
<svg version="1.1" id="Layer_1" xmlns="http://www.w3.org/2000/svg" xmlns:xlink="http://www.w3.org/1999/xlink" x="0px" y="0px"
	 viewBox="0 0 512 512" style="enable-background:new 0 0 512 512;" xml:space="preserve">
<g>
	<g>
		<path d="M143.123,472.149V512h225.755v-39.851H143.123z M353.275,496.398h-194.55v-8.646h194.55V496.398z"/>
	</g>
</g>
<g>
	<g>
		<polygon points="263.282,448.125 263.282,439.804 247.68,439.804 247.68,448.125 159.266,448.125 159.266,463.728 
			352.737,463.728 352.737,448.125 		"/>
	</g>
</g>
<g>
	<g>
		<rect x="178.37" y="72.572" transform="matrix(0.7071 -0.7071 0.7071 0.7071 -2.2208 155.3829)" width="16.166" height="15.601"/>
	</g>
</g>
<g>
	<g>
		
			<rect x="141.074" y="109.732" transform="matrix(0.7071 -0.7071 0.7071 0.7071 -19.2992 188.4735)" width="153.569" height="15.602"/>
	</g>
</g>
<g>
	<g>
		<rect x="280.03" y="35.432" transform="matrix(0.7071 -0.7071 0.7071 0.7071 54.9998 219.2472)" width="24.248" height="15.602"/>
	</g>
</g>
<g>
	<g>
		
			<rect x="260.543" y="126.87" transform="matrix(0.7071 -0.7071 0.7071 0.7071 -12.9974 237.964)" width="40.413" height="15.602"/>
	</g>
</g>
<g>
	<g>
		
			<rect x="245.129" y="238.32" transform="matrix(0.7071 -0.7071 0.7071 0.7071 -80.9313 296.8572)" width="145.487" height="15.602"/>
	</g>
</g>
<g>
	<g>
		<path d="M397.706,52C364.173,18.467,319.59,0,272.166,0c-47.422,0-92.006,18.467-125.539,52c-33.532,33.533-52,78.116-52,125.539
			s18.467,92.007,51.999,125.54c33.533,33.533,78.118,52,125.539,52c47.423,0,92.007-18.467,125.54-52
			c33.532-33.533,52-78.116,52-125.539S431.238,85.533,397.706,52z M386.672,292.046c-17.919,17.919-39.3,31.112-62.632,38.974
			l56.518-56.518l-11.033-11.032l-74.3,74.3l0.07,0.07c-7.596,1.08-15.321,1.637-23.13,1.637c-11.288,0-22.398-1.158-33.2-3.397
			l21.57-21.569l-11.031-11.033l-27.965,27.964c-23.818-7.809-45.641-21.157-63.88-39.395c-3.91-3.91-7.593-7.987-11.048-12.213
			L260.536,165.91l-11.033-11.032L137.228,267.153c-17.564-26.33-26.999-57.246-26.999-89.613c0-3.436,0.119-6.853,0.33-10.252
			l64.247-64.247l-11.033-11.033L114.22,141.56c6.663-29.514,21.522-56.61,43.44-78.527c30.585-30.586,71.25-47.431,114.506-47.431
			c43.255,0,83.922,16.844,114.507,47.431c3.911,3.91,7.593,7.987,11.048,12.213L238.073,234.892l11.033,11.032L407.105,87.926
			c17.564,26.33,26.999,57.246,26.999,89.613C434.103,220.795,417.259,261.46,386.672,292.046z"/>
	</g>
</g>
<g>
	<g>
		
			<rect x="382.895" y="241.178" transform="matrix(0.7071 -0.7071 0.7071 0.7071 -60.3568 352.2451)" width="24.248" height="15.602"/>
	</g>
</g>
<g>
	<g>
		<path d="M409.293,303.368l-11.082,10.983l5.799,5.853c-35.995,33.328-82.511,51.604-131.843,51.604
			c-51.892,0-100.677-20.207-137.369-56.9c-36.693-36.692-56.9-85.478-56.9-137.369c0-49.293,18.247-95.776,51.527-131.761
			l5.745,5.798l11.084-10.982l-28.445-28.71l-11.084,10.982l11.709,11.818c-36.253,38.945-56.139,89.367-56.139,142.853
			c0,56.059,21.83,108.762,61.47,148.401c33.809,33.809,77.122,54.649,123.914,60.053v45.491h15.602v-44.269
			c2.952,0.122,5.912,0.197,8.885,0.197c53.475,0,103.888-19.878,142.829-56.117l11.658,11.767l11.084-10.982L409.293,303.368z"/>
	</g>
</g>
<g>
</g>
<g>
</g>
<g>
</g>
<g>
</g>
<g>
</g>
<g>
</g>
<g>
</g>
<g>
</g>
<g>
</g>
<g>
</g>
<g>
</g>
<g>
</g>
<g>
</g>
<g>
</g>
<g>
</g>
</svg>
