<?xml version="1.0" encoding="utf-8"?>
<!-- Generator: Adobe Illustrator 19.0.0, SVG Export Plug-In . SVG Version: 6.00 Build 0)  -->
<svg version="1.1" id="Layer_1" xmlns="http://www.w3.org/2000/svg" xmlns:xlink="http://www.w3.org/1999/xlink" x="0px" y="0px"
	 viewBox="0 0 423 52.4" style="enable-background:new 0 0 423 52.4;" xml:space="preserve">
<style type="text/css">
	.st0{fill:#717271;}
</style>
<g>
	<path class="st0" d="M307.7,25.9c-0.2-5.4-4.4-7.9-9.4-7.9c-3.9,0-8.5,1.5-8.5,6.2c0,3.8,4.4,5.3,7.5,6.1l5.9,1.3
		c5,0.8,10.3,3.7,10.3,10c0,7.8-7.7,10.8-14.4,10.8c-8.4,0-14-3.8-14.8-12.7h4.4c0.3,5.9,4.7,9,10.6,9c4.2,0,9.8-1.8,9.8-6.8
		c0-4.2-3.9-5.6-7.9-6.6l-5.7-1.3c-5.7-1.5-10.1-3.6-10.1-9.6c0-7.3,7.2-10.1,13.5-10.1c7.3,0,12.8,3.8,13.2,11.6H307.7z"/>
	<path class="st0" d="M325.2,15.3h7.3V19h-7.3v24.3c0,2.9,0.4,4.5,3.6,4.7c1.3,0,2.5-0.1,3.8-0.2v3.8c-1.3,0-2.6,0.1-3.9,0.1
		c-5.9,0-7.9-2-7.8-8.1V19h-6.3v-3.7h6.3V4.5h4.4V15.3z"/>
	<path class="st0" d="M368.5,33.3c0,10.3-6.1,19.1-17,19.1c-11,0-17-8.7-17-19.1s6.1-19.1,17-19.1C362.5,14.3,368.5,23,368.5,33.3z
		 M338.9,33.3c0,7.6,4.3,15.4,12.6,15.4s12.6-7.7,12.6-15.4S359.9,18,351.5,18S338.9,25.7,338.9,33.3z"/>
	<path class="st0" d="M373.1,15.3h4v8.4h0.1c2.2-5.9,7.1-9.2,13.6-8.9v4.4c-8-0.3-13.4,5.4-13.4,12.9v19.2h-4.4V15.3z"/>
	<path class="st0" d="M395.3,34.5c0,6.4,3.5,14.2,11.9,14.2c6.4,0,9.9-3.7,11.3-9.2h4.4c-1.9,8.2-6.6,12.9-15.7,12.9
		c-11.4,0-16.3-8.8-16.3-19.1c0-9.5,4.8-19.1,16.3-19.1c11.5,0,16.2,10.1,15.8,20.2H395.3z M418.6,30.8c-0.2-6.6-4.4-12.8-11.4-12.8
		c-7.3,0-11.1,6.3-11.9,12.8H418.6z"/>
</g>
<path class="st0" d="M196.9,37v-3.7c-1.7,1.5-5.2,1.5-8.2,2.1c-3.1,0.6-5.8,1.7-5.8,5.3c0,3.7,2.9,4.6,6.1,4.6
	C196.6,45.3,196.9,39.2,196.9,37L196.9,37z M68.8,29.1h16.1c-0.9-5-3.1-7.7-7.9-7.7C70.8,21.4,69,26.3,68.8,29.1L68.8,29.1z
	 M104.3,29.1h16.1c-0.9-5-3.1-7.7-7.9-7.7C106.3,21.4,104.5,26.3,104.3,29.1L104.3,29.1z M174.5,27.6h-9.7c-0.6-4-3.2-6.2-7.3-6.2
	c-6.3,0-8.4,6.4-8.4,11.7c0,5.2,2,11.4,8.2,11.4c4.6,0,7.2-2.9,7.9-7.3h8.4c1.7-4.9,6.7-6.3,11.7-7c6.1-0.9,11.7-0.7,11.7-4.7
	c0-4.2-2.9-4.9-6.4-4.9c-3.8,0-6.2,3.1-6.5,7L174.5,27.6L174.5,27.6z M274.9,35.3h-26c0.3,6.3,3.3,9.1,8.9,9.1c4,0,7.2-2.4,7.8-4.7
	h8.7c-2.8,8.5-8.7,12.1-16.9,12.1c-8.8,0-15-4.7-17.3-12c-0.3,9-8.4,12-16.4,12c-7.9,0-15.6-2.8-16.8-11.1v2.1c0,3.3,0.3,6.6,1.3,8
	h-10c-0.3-1.1-0.6-2.3-0.7-3.5c-3.1,3.3-7.7,4.5-12.1,4.5c-6.3,0-11.3-2.9-12.2-9c-2.8,5.9-8.4,9-15.7,9c-9.3,0-15.9-5.6-17.7-13.9
	V51h-9.9V35.3h-25.4c0.3,6.3,3.3,9.1,8.9,9.1c4,0,7.2-2.4,7.8-4.7h8.7c-2.8,8.5-8.7,12.1-16.9,12.1c-10.5,0-17.4-6.7-18.3-16.6H68.8
	c0.3,6.3,3.3,9.1,8.9,9.1c4,0,7.2-2.4,7.8-4.7h8.7c-2.8,8.5-8.7,12.1-16.9,12.1c-11.4,0-18.4-7.8-18.4-19c0-10.8,7.5-19,18.4-19
	c10.2,0,16.1,7.2,17.3,16c1.3-9.3,8.3-16,18.2-16c9.4,0,15.1,6.1,16.9,13.9V1.2h9.9v27.3c1.7-8.6,8-14.5,17.9-14.5
	c7.8,0,15.1,3.8,16.7,11.6c1.2-9.5,9.2-11.6,16.8-11.6c7.2,0,15.8,1.6,15.8,10.3v15.1h9.3c0.1,4.3,3.7,6.1,7.6,6.1
	c2.8,0,6.5-1.1,6.5-4.6c0-3-4.1-4-11.2-5.6c-5.7-1.3-11.4-3.3-11.4-9.6c0-9.2,7.9-11.6,15.7-11.6c7.9,0,15.1,2.7,15.9,11.5h-9.4
	c-0.3-3.8-3.2-4.9-6.8-4.9c-2.2,0-5.5,0.4-5.5,3.3c0,3.6,5.6,4,11.2,5.4c4.3,1,8.6,2.4,10.5,5.9c-0.1-0.7-0.1-1.5-0.1-2.2
	c0-10.8,7.5-19,18.4-19C269.7,13.9,275.6,24.3,274.9,35.3L274.9,35.3z M248.9,29.1H265c-0.9-5-3.1-7.7-7.9-7.7
	C250.8,21.4,249,26.3,248.9,29.1L248.9,29.1z M53.3,4.1v10.8h7.2v5.7h-7.2v18.7c0,3.3,0.8,4.2,4.2,4.2c1,0,2-0.1,3.1-0.3V51
	c-1.7,0.3-3.8,0.4-5.8,0.4c-6.1,0-11.4-1.4-11.4-8.6V20.7H29.6l0-4.6c-0.3-6-4.6-7.5-9.8-7.5c-3.5,0-7.5,1.5-7.5,5.7
	c0,3.8,2.4,4.3,14.8,7.5c3.6,0.9,14.8,3.2,14.8,14.5c0,9.1-7.2,16-20.7,16c-11,0-21.3-5.4-21.2-17.7h10.6c0,6.6,5.2,9.2,11,9.2
	c3.8,0,9.7-1.1,9.7-6.2c0-5.4-7.5-6.3-14.8-8.2c-7.4-2-14.8-4.8-14.8-14.1C1.7,4.9,11.3,0,20.3,0c10,0,19.3,4.2,19.9,14.9h3.2V4.1
	H53.3L53.3,4.1z"/>
</svg>
